:SAMPLES-PER-SECOND 30
:FRAME-RANGE 1-3535
:FULLY-SPECIFIED
:DEGREES
663
root  -47.8078 37.887 -18.6019 1.96242 33.6031 0.462128
RightUpLeg  1.11604 -3.98278 1.03631
RightLeg  41.5118 -0.686474 -0.938595
RightFoot  -17.2185 0.55032 12.9548
RightToes  5.38503e-012 1.26228e-014 -6.01869e-014
Spine  -2.61601 3.40031 3.71378
Spine1  5.79474 4.00324 -3.8257
HEad  11.4552 30.9295 -4.06078
LeftShoulder1  0.90906 0.0261377 -21.6031
LeftArm  2.35744 10.7452 -46.4296
LeftForeArm  5.60369 -40.6785 -9.26705
LeftHand  -0.140107 3.41452 7.48498
RightShoulder  1.96031 4.25218 19.5731
RightArm  19.6715 33.4 69.6735
RightForeArm  7.88455 34.3837 7.23945
RightHand  -0.106365 -1.68917 -3.09353
LeftUpLeg  -27.6294 8.22825 -5.94603
LeftLeg  15.7773 17.8147 4.92386
LeftFoot  6.02887 -1.01635 6.40584
LeftToes  8.9788e-011 3.29689e-010 2.1201e-011
664
root  -47.2013 37.8801 -17.705 1.73801 35.3645 0.358353
RightUpLeg  -3.63514 -6.1232 -0.411132
RightLeg  52.0879 1.5636 1.78086
RightFoot  -9.3645 -0.311321 14.2685
RightToes  5.38503e-012 1.26228e-014 -6.01869e-014
Spine  -2.50766 3.14549 2.64819
Spine1  6.15886 3.83667 -4.0485
HEad  12.1013 29.1094 -3.45805
LeftShoulder1  1.10711 -0.783943 -20.9163
LeftArm  4.21462 6.50835 -46.4358
LeftForeArm  1.34913 -32.8438 -7.19536
LeftHand  -0.153016 3.29192 7.8047
RightShoulder  2.00982 4.54648 19.21
RightArm  19.8947 34.041 70.4685
RightForeArm  1.16278 27.2999 5.82387
RightHand  -0.130538 -2.7318 -5.18226
LeftUpLeg  -27.6696 9.52572 -6.96918
LeftLeg  18.9105 14.3362 5.62066
LeftFoot  4.75994 -1.16276 8.0017
LeftToes  8.9788e-011 3.29689e-010 2.1201e-011
665
root  -46.6394 37.8923 -16.878 1.35986 36.6535 0.447433
RightUpLeg  -8.65018 -5.98567 -0.885535
RightLeg  61.0336 1.03532 1.51698
RightFoot  -2.54499 -0.935718 11.8993
RightToes  5.38503e-012 1.26228e-014 -6.01869e-014
Spine  -1.92917 3.05233 1.88284
Spine1  6.456 3.92392 -4.80817
HEad  14.1681 27.645 -2.82705
LeftShoulder1  1.21071 -1.16709 -20.9155
LeftArm  7.01733 2.24993 -46.1017
LeftForeArm  -4.04503 -26.7233 -5.9546
LeftHand  -0.146324 3.0224 6.60612
RightShoulder  2.04254 4.67963 19.1943
RightArm  20.1826 34.932 71.0082
RightForeArm  -2.51892 20.9923 5.95269
RightHand  -0.0691415 -4.30049 -5.31207
LeftUpLeg  -27.0177 9.21493 -6.96747
LeftLeg  21.8605 13.3158 6.13958
LeftFoot  2.34201 -0.93378 7.65188
LeftToes  8.9788e-011 3.29689e-010 2.1201e-011
666
root  -46.15 37.871 -16.1148 1.54083 38.4506 0.998337
RightUpLeg  -12.8671 -5.37729 -1.56906
RightLeg  66.1251 0.459778 0.494598
RightFoot  -3.19877 -0.747491 10.1692
RightToes  5.38503e-012 1.26228e-014 -6.01869e-014
Spine  -1.23273 2.75524 0.516714
Spine1  6.60151 3.7096 -5.43172
HEad  16.7662 26.0978 -2.39101
LeftShoulder1  1.2919 -1.42537 -21.1714
LeftArm  8.66517 -1.50943 -45.5887
LeftForeArm  -5.95279 -22.0416 -5.44396
LeftHand  -0.129546 2.73126 5.16673
RightShoulder  2.06013 4.76875 19.1263
RightArm  13.9846 35.1796 70.6901
RightForeArm  4.56647 16.4793 8.52033
RightHand  -0.00523578 -5.8654 -5.2376
LeftUpLeg  -26.4448 8.28657 -7.27813
LeftLeg  24.1471 12.5051 6.40026
LeftFoot  0.152299 -0.728062 7.21498
LeftToes  8.9788e-011 3.29689e-010 2.1201e-011
667
root  -45.6481 37.9991 -15.3464 1.64912 40.6503 1.09967
RightUpLeg  -16.228 -4.4196 -1.99307
RightLeg  66.8191 -0.205696 -1.20104
RightFoot  -5.89762 -0.46947 9.01075
RightToes  5.38503e-012 1.26228e-014 -6.01869e-014
Spine  -0.872866 2.35574 -0.328477
Spine1  6.7749 3.39334 -5.82756
HEad  18.437 24.6837 -2.62204
LeftShoulder1  1.37286 -1.74521 -21.0385
LeftArm  4.75889 -4.58091 -45.8198
LeftForeArm  -2.14856 -17.5797 -7.21417
LeftHand  -0.117201 2.9399 4.96748
RightShoulder  2.02728 4.70776 18.8914
RightArm  12.1768 34.9983 70.0806
RightForeArm  11.5624 13.9525 9.97857
RightHand  0.0163985 -6.32631 -5.56115
LeftUpLeg  -25.178 7.44448 -7.25265
LeftLeg  24.6871 11.3559 5.99308
LeftFoot  -1.36374 -0.573759 6.65947
LeftToes  8.9788e-011 3.29689e-010 2.1201e-011
668
root  -45.1549 38.2217 -14.6105 1.71452 43.026 0.711731
RightUpLeg  -18.9415 -3.08398 -2.40613
RightLeg  63.6407 -1.01246 -2.80327
RightFoot  -8.15385 -0.272438 7.7843
RightToes  5.38503e-012 1.26228e-014 -6.01869e-014
Spine  -0.543291 1.99276 -0.765641
Spine1  6.53229 3.04986 -5.73467
HEad  19.5813 23.2293 -3.0678
LeftShoulder1  1.42776 -2.01325 -20.6791
LeftArm  0.0756323 -6.68478 -46.8621
LeftForeArm  0.946844 -14.0413 -8.68414
LeftHand  -0.105079 2.6746 3.99026
RightShoulder  1.97537 4.57721 18.629
RightArm  16.6341 34.1694 68.9651
RightForeArm  13.4485 14.646 9.96331
RightHand  0.00811053 -6.46008 -4.2004
LeftUpLeg  -23.6954 6.21712 -6.78612
LeftLeg  24.0995 10.4097 5.38939
LeftFoot  -2.29575 -0.481975 6.26203
LeftToes  8.9788e-011 3.29689e-010 2.1201e-011
669
root  -44.6625 38.4945 -13.8667 1.53793 45.7467 -0.0541687
RightUpLeg  -20.3211 -1.30138 -2.90058
RightLeg  56.8853 -2.68904 -4.86996
RightFoot  -10.8317 -0.108369 7.78954
RightToes  5.38503e-012 1.26228e-014 -6.01869e-014
Spine  -0.513767 1.62889 -0.957555
Spine1  6.56751 2.68191 -5.3428
HEad  20.0219 21.8561 -3.54028
LeftShoulder1  1.47686 -2.29794 -20.1584
LeftArm  -1.80739 -8.20153 -48.3131
LeftForeArm  3.55964 -11.8786 -9.43796
LeftHand  -0.0943858 2.81545 3.68509
RightShoulder  1.9401 4.47313 18.4986
RightArm  25.8938 32.8528 67.3352
RightForeArm  9.73112 17.3545 8.65426
RightHand  -0.00196757 -6.51029 -3.12
LeftUpLeg  -21.9628 4.70089 -5.90819
LeftLeg  22.9042 9.43449 4.53022
LeftFoot  -2.90101 -0.415132 5.85823
LeftToes  8.9788e-011 3.29689e-010 2.1201e-011
670
root  -44.1668 38.7874 -13.1546 1.27802 48.5982 -1.23811
RightUpLeg  -20.9668 1.43637 -3.55806
RightLeg  47.6112 -5.72637 -7.00149
RightFoot  -10.6744 -0.116718 7.56939
RightToes  5.38503e-012 1.26228e-014 -6.01869e-014
Spine  -0.624083 1.29325 -0.533707
Spine1  6.44199 2.37047 -4.92967
HEad  19.8168 20.6696 -4.02086
LeftShoulder1  1.51533 -2.4892 -19.9384
LeftArm  -1.37919 -9.30821 -49.514
LeftForeArm  8.32997 -11.2426 -9.7046
LeftHand  -0.0827497 2.88996 3.22174
RightShoulder  1.91137 4.35056 18.522
RightArm  34.2909 31.141 65.5183
RightForeArm  5.1133 20.0168 6.84083
RightHand  -0.013986 -6.33893 -2.22927
LeftUpLeg  -20.3568 3.31284 -4.84358
LeftLeg  21.1868 8.24866 3.59121
LeftFoot  -3.28661 -0.368088 5.50572
LeftToes  8.9788e-011 3.29689e-010 2.1201e-011
